<?xml version="1.0" encoding="utf-8"?>
<!-- Generator: Adobe Illustrator 24.0.2, SVG Export Plug-In . SVG Version: 6.00 Build 0)  -->
<svg version="1.0" id="Ebene_1" xmlns="http://www.w3.org/2000/svg" xmlns:xlink="http://www.w3.org/1999/xlink" x="0px" y="0px"
	 viewBox="0 0 200 100" style="enable-background:new 0 0 200 100;" xml:space="preserve">
<style type="text/css">
	.st0{fill:#294D9D;}
	.st1{clip-path:url(#SVGID_2_);fill:none;stroke:#FFDD00;stroke-width:0.877;}
	.st2{clip-path:url(#SVGID_2_);fill:#FFFFFF;}
	.st3{clip-path:url(#SVGID_2_);fill:#FFDD00;}
	.st4{fill:#FFDD00;}
</style>
<polygon class="st0" points="15.97,89.95 51.26,90.49 51.26,24.47 32.38,5.4 11.64,23.01 "/>
<g>
	<defs>
		<polygon id="SVGID_1_" points="11.64,23.01 15.97,89.95 51.25,90.49 51.25,24.47 32.39,5.4 		"/>
	</defs>
	<clipPath id="SVGID_2_">
		<use xlink:href="#SVGID_1_"  style="overflow:visible;"/>
	</clipPath>
	<line class="st1" x1="34" y1="48.61" x2="34" y2="90.95"/>
	<path class="st2" d="M35.04,50.09c10,0,18.1-6.54,18.1-14.61c0-8.07-8.1-14.61-18.1-14.61c-10,0-18.1,6.54-18.1,14.61
		C16.94,43.55,25.04,50.09,35.04,50.09"/>
	<path class="st3" d="M34.54,40.19c4.37,0,7.92-2.77,7.92-6.19c0-3.42-3.55-6.19-7.92-6.19c-4.37,0-7.92,2.77-7.92,6.19
		C26.62,37.42,30.16,40.19,34.54,40.19"/>
</g>
<path class="st4" d="M23.12,91.48c-7.35,0.14-11.99-3.22-11.83-4.41c0.16-1.19,5.58-2.46,12.41,0.09
	c6.45,2.41,12.09,3.15,11.93,4.35C35.48,92.7,29.89,91.35,23.12,91.48"/>
<path class="st4" d="M45.36,87.09c7.1-2.76,12.44-1.29,12.58-0.11c0.14,1.17-4.81,4.29-12.07,4.36c-6.86,0.06-12.82,1.33-12.58,0.11
	C33.52,90.28,38.82,89.63,45.36,87.09"/>
<path class="st4" d="M42.16,82.95c4.65-5.06,9.38-5.72,9.9-4.74c0.52,0.98-2.3,5.56-8.02,8.3c-5.4,2.58-9.38,5.72-9.9,4.74
	C33.62,90.27,37.88,87.61,42.16,82.95"/>
<path class="st4" d="M24.62,86.57c-6.22-2.94-9.09-7.67-8.59-8.6c0.5-0.93,5.44,0.27,10.4,5.23c4.69,4.69,9.09,7.67,8.59,8.59
	C34.51,92.73,30.34,89.27,24.62,86.57"/>
<path class="st4" d="M37.14,81.22c1.51-5.76,4.74-8.34,5.49-7.85c0.75,0.49,0.4,5.09-2.77,9.62c-3,4.28-4.74,8.34-5.49,7.85
	C33.62,90.35,35.75,86.52,37.14,81.22"/>
<path class="st0" d="M188.19,41.03c-0.35-0.83-0.8-1.55-1.36-2.16c-0.56-0.61-1.2-1.14-1.92-1.58c-0.72-0.44-1.45-0.83-2.2-1.18
	c-0.75-0.35-1.48-0.67-2.2-0.98c-0.72-0.31-1.36-0.64-1.93-0.99c-0.57-0.35-1.02-0.75-1.36-1.21c-0.34-0.45-0.51-0.99-0.51-1.61
	c0-0.42,0.08-0.81,0.23-1.19c0.15-0.38,0.38-0.7,0.69-0.96c0.31-0.27,0.69-0.47,1.15-0.63c0.46-0.15,1-0.23,1.62-0.23
	c0.79,0,1.52,0.1,2.18,0.29c0.66,0.19,1.24,0.41,1.75,0.65c0.5,0.24,0.93,0.46,1.27,0.66c0.35,0.2,0.6,0.3,0.75,0.3
	c0.16,0,0.28-0.04,0.38-0.13c0.09-0.09,0.17-0.22,0.22-0.41c0.05-0.19,0.09-0.42,0.11-0.71c0.02-0.29,0.03-0.64,0.03-1.06
	c0-0.37-0.01-0.69-0.02-0.94c-0.01-0.25-0.04-0.46-0.07-0.63c-0.04-0.16-0.08-0.3-0.13-0.4c-0.05-0.1-0.15-0.22-0.29-0.37
	c-0.14-0.14-0.44-0.32-0.89-0.54c-0.44-0.22-0.96-0.41-1.53-0.58c-0.58-0.17-1.19-0.31-1.86-0.41c-0.66-0.1-1.32-0.15-1.99-0.15
	c-1.28,0-2.49,0.16-3.63,0.5c-1.14,0.33-2.14,0.83-2.98,1.5c-0.84,0.67-1.51,1.51-2.01,2.52c-0.5,1.01-0.75,2.19-0.75,3.53
	c0,1.17,0.17,2.17,0.52,3c0.35,0.84,0.8,1.56,1.35,2.17c0.55,0.61,1.18,1.14,1.89,1.58c0.7,0.44,1.43,0.83,2.18,1.18
	c0.75,0.35,1.47,0.67,2.18,0.98c0.7,0.31,1.33,0.64,1.89,0.99c0.55,0.35,1,0.75,1.35,1.21c0.34,0.45,0.52,1,0.52,1.63
	c0,0.55-0.1,1.04-0.3,1.49c-0.2,0.45-0.49,0.82-0.87,1.12c-0.38,0.3-0.84,0.54-1.39,0.7c-0.55,0.16-1.17,0.25-1.86,0.25
	c-1.05,0-1.98-0.12-2.77-0.36c-0.8-0.24-1.49-0.5-2.06-0.79c-0.58-0.29-1.05-0.55-1.41-0.79c-0.37-0.24-0.65-0.35-0.85-0.35
	c-0.14,0-0.27,0.04-0.38,0.12c-0.11,0.08-0.19,0.21-0.26,0.4c-0.06,0.19-0.11,0.43-0.14,0.73c-0.03,0.3-0.04,0.68-0.04,1.12
	c0,0.66,0.04,1.17,0.12,1.52c0.08,0.35,0.21,0.62,0.4,0.81s0.49,0.4,0.92,0.65c0.42,0.24,0.95,0.48,1.59,0.7
	c0.63,0.22,1.36,0.41,2.19,0.57c0.83,0.16,1.72,0.24,2.69,0.24c1.42,0,2.76-0.19,4.01-0.56c1.25-0.37,2.34-0.93,3.28-1.67
	c0.93-0.74,1.67-1.66,2.22-2.77c0.55-1.11,0.82-2.4,0.82-3.86C188.71,42.83,188.53,41.86,188.19,41.03 M164.34,25.18
	c0-0.14-0.05-0.27-0.14-0.39c-0.09-0.11-0.25-0.21-0.46-0.28c-0.21-0.07-0.5-0.13-0.86-0.17c-0.36-0.04-0.82-0.07-1.38-0.07
	c-0.55,0-1,0.02-1.36,0.07c-0.36,0.04-0.65,0.1-0.87,0.17c-0.22,0.07-0.38,0.17-0.47,0.28c-0.09,0.12-0.14,0.24-0.14,0.39v26.37
	c0,0.14,0.05,0.27,0.14,0.39c0.09,0.12,0.25,0.21,0.46,0.28c0.22,0.07,0.51,0.13,0.87,0.17c0.37,0.04,0.82,0.07,1.37,0.07
	c0.56,0,1.02-0.02,1.38-0.07c0.36-0.04,0.65-0.1,0.86-0.17c0.21-0.07,0.37-0.16,0.46-0.28c0.09-0.11,0.14-0.24,0.14-0.39V25.18z
	 M153.52,48.86c-0.04-0.3-0.09-0.53-0.16-0.71c-0.07-0.18-0.16-0.31-0.27-0.39c-0.11-0.08-0.23-0.12-0.38-0.12h-8.78V25.18
	c0-0.14-0.05-0.27-0.14-0.39c-0.09-0.11-0.25-0.21-0.47-0.28c-0.21-0.07-0.5-0.13-0.86-0.17c-0.36-0.04-0.82-0.07-1.38-0.07
	c-0.55,0-1,0.02-1.37,0.07c-0.37,0.04-0.66,0.1-0.87,0.17c-0.22,0.07-0.37,0.17-0.46,0.28c-0.1,0.12-0.14,0.24-0.14,0.39v25.35
	c0,0.63,0.16,1.09,0.48,1.37c0.33,0.28,0.72,0.42,1.2,0.42h12.8c0.14,0,0.27-0.04,0.38-0.13c0.11-0.09,0.2-0.23,0.27-0.42
	c0.07-0.19,0.13-0.44,0.16-0.73c0.04-0.3,0.05-0.66,0.05-1.09C153.58,49.52,153.56,49.16,153.52,48.86 M133.11,48.86
	c-0.04-0.3-0.09-0.53-0.16-0.71c-0.07-0.18-0.16-0.31-0.27-0.39c-0.11-0.08-0.24-0.12-0.38-0.12h-8.78V25.18
	c0-0.14-0.05-0.27-0.14-0.39c-0.09-0.11-0.25-0.21-0.46-0.28c-0.22-0.07-0.5-0.13-0.86-0.17c-0.36-0.04-0.82-0.07-1.38-0.07
	c-0.55,0-1,0.02-1.37,0.07c-0.37,0.04-0.66,0.1-0.87,0.17c-0.21,0.07-0.37,0.17-0.46,0.28c-0.09,0.12-0.14,0.24-0.14,0.39v25.35
	c0,0.63,0.16,1.09,0.49,1.37c0.32,0.28,0.72,0.42,1.2,0.42h12.79c0.14,0,0.27-0.04,0.38-0.13c0.11-0.09,0.2-0.23,0.27-0.42
	c0.07-0.19,0.13-0.44,0.16-0.73c0.04-0.3,0.05-0.66,0.05-1.09C133.17,49.52,133.15,49.16,133.11,48.86 M111.04,49.06
	c-0.04-0.28-0.09-0.51-0.16-0.68c-0.07-0.17-0.16-0.3-0.27-0.38c-0.11-0.08-0.23-0.12-0.36-0.12H100.2V40h8.44
	c0.13,0,0.25-0.04,0.36-0.11c0.11-0.07,0.2-0.19,0.27-0.36c0.07-0.17,0.13-0.38,0.16-0.66c0.04-0.27,0.05-0.62,0.05-1.04
	c0-0.4-0.02-0.74-0.05-1.02c-0.04-0.28-0.09-0.5-0.16-0.67c-0.07-0.16-0.16-0.29-0.27-0.37c-0.11-0.08-0.23-0.12-0.36-0.12h-8.44
	v-6.82h9.97c0.13,0,0.24-0.04,0.35-0.12c0.1-0.08,0.19-0.2,0.26-0.38c0.07-0.17,0.13-0.4,0.16-0.68c0.04-0.28,0.05-0.62,0.05-1.03
	c0-0.43-0.02-0.79-0.05-1.07c-0.04-0.28-0.09-0.51-0.16-0.69c-0.07-0.18-0.16-0.3-0.26-0.38c-0.1-0.07-0.21-0.11-0.35-0.11H96.23
	c-0.47,0-0.87,0.14-1.2,0.42c-0.33,0.28-0.49,0.74-0.49,1.37v24.34c0,0.63,0.16,1.09,0.49,1.37c0.32,0.28,0.72,0.42,1.2,0.42h14.03
	c0.13,0,0.25-0.04,0.36-0.12c0.11-0.08,0.2-0.2,0.27-0.38c0.07-0.17,0.13-0.4,0.16-0.68c0.04-0.28,0.05-0.63,0.05-1.05
	C111.09,49.68,111.07,49.34,111.04,49.06 M82.92,45.8c-0.22,0.48-0.53,0.89-0.93,1.21c-0.39,0.32-0.86,0.57-1.4,0.73
	c-0.54,0.17-1.21,0.25-2,0.25h-4.1v-7.94h3.37c1.04,0,1.88,0.09,2.52,0.28c0.65,0.19,1.18,0.45,1.6,0.8
	c0.42,0.35,0.73,0.77,0.95,1.28c0.21,0.51,0.32,1.09,0.32,1.74C83.26,44.77,83.15,45.32,82.92,45.8 M81.57,33.63
	c-0.16,0.45-0.4,0.85-0.72,1.19c-0.32,0.34-0.73,0.61-1.22,0.8c-0.49,0.19-1.14,0.29-1.96,0.29H74.5v-7.25h2.87
	c0.88,0,1.58,0.08,2.1,0.24c0.52,0.16,0.96,0.39,1.3,0.68c0.35,0.29,0.6,0.67,0.78,1.11c0.17,0.45,0.26,0.95,0.26,1.51
	C81.81,32.7,81.73,33.18,81.57,33.63 M88.72,41.39c-0.29-0.76-0.68-1.43-1.18-2c-0.5-0.57-1.08-1.03-1.75-1.39
	c-0.67-0.36-1.4-0.61-2.19-0.75c0.62-0.23,1.17-0.53,1.65-0.91c0.48-0.37,0.89-0.81,1.22-1.3c0.33-0.49,0.58-1.03,0.75-1.63
	c0.17-0.6,0.26-1.23,0.26-1.91c0-1.21-0.22-2.26-0.65-3.15c-0.43-0.89-1.05-1.63-1.87-2.21c-0.81-0.58-1.81-1.02-3-1.31
	c-1.19-0.29-2.64-0.43-4.35-0.43h-7.01c-0.47,0-0.87,0.14-1.2,0.42c-0.32,0.28-0.49,0.74-0.49,1.37v24.34
	c0,0.63,0.16,1.09,0.49,1.37c0.32,0.28,0.72,0.42,1.2,0.42h7.42c1.12,0,2.14-0.07,3.05-0.21c0.91-0.14,1.77-0.35,2.58-0.64
	c0.81-0.29,1.54-0.66,2.21-1.1c0.67-0.45,1.24-0.98,1.72-1.6c0.48-0.62,0.86-1.33,1.13-2.14c0.27-0.81,0.41-1.7,0.41-2.7
	C89.15,43,89,42.15,88.72,41.39"/>
<path class="st0" d="M188.5,86.94c0-0.52-0.04-0.97-0.13-1.34c-0.09-0.37-0.24-0.7-0.44-0.98c-0.21-0.28-0.48-0.5-0.81-0.67
	c-0.33-0.17-0.75-0.25-1.24-0.25c-0.42,0-0.83,0.11-1.24,0.32c-0.41,0.21-0.82,0.55-1.24,1.02v-0.97c0-0.04-0.01-0.08-0.03-0.11
	c-0.02-0.03-0.05-0.06-0.09-0.08c-0.04-0.02-0.1-0.04-0.18-0.05c-0.08-0.01-0.18-0.01-0.3-0.01c-0.13,0-0.23,0-0.3,0.01
	c-0.08,0.01-0.14,0.02-0.19,0.05c-0.05,0.02-0.08,0.05-0.1,0.08c-0.02,0.03-0.03,0.07-0.03,0.11v7.35c0,0.04,0.01,0.08,0.03,0.11
	c0.02,0.03,0.05,0.06,0.11,0.08c0.05,0.02,0.12,0.04,0.21,0.05c0.09,0.01,0.2,0.02,0.33,0.02c0.14,0,0.25-0.01,0.33-0.02
	c0.09-0.01,0.16-0.03,0.2-0.05c0.05-0.02,0.08-0.05,0.11-0.08c0.02-0.03,0.03-0.07,0.03-0.11v-5.14c0.37-0.46,0.72-0.81,1.06-1.05
	c0.34-0.24,0.67-0.36,1.01-0.36c0.26,0,0.49,0.05,0.69,0.15c0.2,0.1,0.36,0.24,0.49,0.43c0.13,0.19,0.22,0.41,0.29,0.66
	c0.07,0.26,0.1,0.59,0.1,1.01v4.3c0,0.04,0.01,0.08,0.03,0.11c0.02,0.03,0.06,0.06,0.1,0.08c0.05,0.02,0.12,0.04,0.21,0.05
	c0.09,0.01,0.2,0.02,0.33,0.02c0.13,0,0.24-0.01,0.33-0.02c0.09-0.01,0.16-0.03,0.2-0.05c0.05-0.02,0.08-0.05,0.11-0.08
	c0.02-0.03,0.03-0.07,0.03-0.11V86.94z M178.66,88.92c-0.09,0.36-0.23,0.66-0.41,0.92c-0.19,0.26-0.43,0.45-0.72,0.6
	c-0.29,0.14-0.64,0.21-1.03,0.21c-0.44,0-0.8-0.08-1.09-0.23c-0.29-0.16-0.52-0.36-0.7-0.63c-0.17-0.26-0.3-0.57-0.37-0.93
	c-0.07-0.35-0.11-0.73-0.11-1.13c0-0.42,0.04-0.81,0.14-1.16c0.09-0.35,0.23-0.66,0.41-0.92c0.19-0.26,0.42-0.46,0.71-0.6
	c0.29-0.14,0.63-0.21,1.03-0.21c0.43,0,0.8,0.08,1.09,0.23c0.29,0.16,0.52,0.37,0.69,0.63c0.17,0.27,0.29,0.58,0.37,0.93
	c0.07,0.36,0.11,0.73,0.11,1.13C178.79,88.18,178.75,88.57,178.66,88.92 M179.96,86.01c-0.15-0.49-0.37-0.91-0.67-1.25
	c-0.3-0.34-0.67-0.61-1.12-0.78c-0.45-0.18-0.98-0.27-1.58-0.27c-0.63,0-1.17,0.1-1.64,0.3c-0.47,0.2-0.86,0.48-1.17,0.85
	c-0.31,0.36-0.55,0.8-0.7,1.3c-0.16,0.5-0.23,1.06-0.23,1.65c0,0.62,0.07,1.18,0.22,1.67c0.15,0.49,0.37,0.91,0.67,1.25
	c0.3,0.34,0.67,0.6,1.12,0.78c0.45,0.18,0.98,0.27,1.58,0.27c0.62,0,1.17-0.1,1.64-0.31c0.47-0.2,0.86-0.49,1.18-0.85
	c0.31-0.36,0.55-0.8,0.71-1.3c0.16-0.5,0.24-1.05,0.24-1.65C180.19,87.05,180.11,86.5,179.96,86.01 M170.83,80.96
	c-0.12-0.11-0.33-0.17-0.65-0.17c-0.32,0-0.54,0.06-0.66,0.17c-0.12,0.11-0.18,0.33-0.18,0.64c0,0.31,0.06,0.52,0.18,0.63
	c0.12,0.11,0.33,0.17,0.65,0.17c0.32,0,0.54-0.06,0.66-0.17c0.12-0.11,0.18-0.33,0.18-0.64C171.01,81.28,170.95,81.07,170.83,80.96
	 M165.7,83.86v-1.75c0-0.04-0.01-0.07-0.03-0.11c-0.02-0.03-0.06-0.06-0.11-0.09c-0.05-0.02-0.12-0.04-0.2-0.05
	c-0.09-0.01-0.2-0.02-0.33-0.02c-0.13,0-0.24,0.01-0.33,0.02c-0.09,0.01-0.16,0.03-0.21,0.05c-0.05,0.02-0.09,0.05-0.1,0.09
	c-0.02,0.03-0.03,0.07-0.03,0.11v1.75h-1.02c-0.04,0-0.08,0.01-0.12,0.03c-0.04,0.02-0.07,0.05-0.09,0.1
	c-0.02,0.04-0.04,0.1-0.05,0.18c-0.01,0.07-0.02,0.16-0.02,0.26c0,0.2,0.03,0.34,0.07,0.43c0.05,0.09,0.11,0.13,0.2,0.13h1.03v4.29
	c0,0.42,0.04,0.79,0.12,1.11c0.08,0.31,0.21,0.57,0.38,0.78c0.17,0.21,0.4,0.36,0.67,0.46c0.27,0.1,0.6,0.15,0.98,0.15
	c0.13,0,0.25-0.01,0.38-0.02c0.13-0.02,0.24-0.04,0.36-0.06c0.11-0.02,0.21-0.06,0.3-0.09c0.09-0.04,0.15-0.08,0.2-0.13
	c0.04-0.05,0.08-0.11,0.1-0.2c0.02-0.09,0.03-0.21,0.03-0.37c0-0.1-0.01-0.18-0.02-0.24c-0.01-0.07-0.02-0.12-0.04-0.16
	c-0.01-0.04-0.03-0.06-0.06-0.08c-0.02-0.01-0.05-0.02-0.08-0.02c-0.04,0-0.09,0.01-0.15,0.04c-0.05,0.02-0.12,0.05-0.2,0.08
	c-0.08,0.03-0.16,0.05-0.26,0.08c-0.1,0.02-0.21,0.04-0.33,0.04c-0.39,0-0.65-0.13-0.81-0.39c-0.15-0.26-0.22-0.64-0.22-1.15v-4.1
	h3.8v6.44c0,0.04,0.01,0.08,0.03,0.11c0.02,0.03,0.06,0.06,0.11,0.08c0.05,0.02,0.12,0.04,0.21,0.05c0.09,0.01,0.2,0.02,0.33,0.02
	c0.13,0,0.23-0.01,0.32-0.02c0.09-0.01,0.16-0.03,0.21-0.05c0.05-0.02,0.09-0.05,0.11-0.08c0.02-0.03,0.03-0.07,0.03-0.11v-7.13
	c0-0.14-0.03-0.25-0.09-0.32c-0.06-0.07-0.17-0.11-0.33-0.11H165.7z M161.73,86.94c0-0.52-0.04-0.97-0.14-1.34
	c-0.09-0.37-0.24-0.7-0.44-0.98c-0.21-0.28-0.48-0.5-0.81-0.67c-0.33-0.17-0.75-0.25-1.24-0.25c-0.42,0-0.83,0.11-1.24,0.32
	c-0.41,0.21-0.82,0.55-1.24,1.02v-0.97c0-0.04-0.01-0.08-0.03-0.11c-0.02-0.03-0.05-0.06-0.1-0.08c-0.04-0.02-0.1-0.04-0.18-0.05
	c-0.08-0.01-0.18-0.01-0.3-0.01c-0.13,0-0.23,0-0.3,0.01c-0.08,0.01-0.14,0.02-0.19,0.05c-0.05,0.02-0.08,0.05-0.1,0.08
	c-0.02,0.03-0.02,0.07-0.02,0.11v7.35c0,0.04,0.01,0.08,0.03,0.11c0.02,0.03,0.05,0.06,0.11,0.08c0.05,0.02,0.12,0.04,0.21,0.05
	c0.09,0.01,0.2,0.02,0.33,0.02c0.14,0,0.25-0.01,0.33-0.02c0.09-0.01,0.16-0.03,0.21-0.05c0.05-0.02,0.08-0.05,0.1-0.08
	c0.02-0.03,0.03-0.07,0.03-0.11v-5.14c0.37-0.46,0.72-0.81,1.06-1.05s0.67-0.36,1.01-0.36c0.26,0,0.49,0.05,0.69,0.15
	c0.2,0.1,0.36,0.24,0.49,0.43c0.13,0.19,0.22,0.41,0.29,0.66c0.07,0.26,0.1,0.59,0.1,1.01v4.3c0,0.04,0.01,0.08,0.03,0.11
	c0.02,0.03,0.06,0.06,0.11,0.08c0.05,0.02,0.12,0.04,0.2,0.05c0.09,0.01,0.2,0.02,0.33,0.02c0.13,0,0.24-0.01,0.33-0.02
	c0.09-0.01,0.16-0.03,0.2-0.05c0.05-0.02,0.08-0.05,0.11-0.08c0.02-0.03,0.03-0.07,0.03-0.11V86.94z M147.99,87.03
	c0.01-0.3,0.06-0.58,0.16-0.86c0.09-0.27,0.23-0.52,0.39-0.72c0.17-0.21,0.38-0.37,0.63-0.5c0.25-0.13,0.55-0.19,0.88-0.19
	c0.65,0,1.14,0.2,1.47,0.6c0.33,0.4,0.49,0.96,0.47,1.67H147.99z M153.35,87.18c0-0.48-0.06-0.93-0.18-1.35
	c-0.12-0.42-0.32-0.79-0.58-1.1c-0.26-0.31-0.6-0.56-1-0.75c-0.41-0.19-0.9-0.28-1.47-0.28c-0.54,0-1.03,0.09-1.46,0.28
	c-0.44,0.19-0.81,0.46-1.11,0.81c-0.31,0.35-0.54,0.78-0.71,1.28c-0.16,0.5-0.24,1.07-0.24,1.7c0,0.66,0.08,1.25,0.24,1.75
	c0.16,0.5,0.39,0.92,0.7,1.25c0.31,0.33,0.69,0.58,1.15,0.75c0.45,0.17,0.98,0.25,1.59,0.25c0.35,0,0.68-0.03,0.98-0.08
	c0.31-0.05,0.58-0.11,0.81-0.18c0.23-0.07,0.42-0.13,0.57-0.2c0.15-0.07,0.24-0.12,0.27-0.15c0.03-0.03,0.06-0.06,0.07-0.1
	c0.02-0.03,0.03-0.07,0.04-0.11c0.01-0.04,0.01-0.09,0.02-0.14c0-0.05,0.01-0.11,0.01-0.18c0-0.1,0-0.18-0.01-0.25
	c-0.01-0.07-0.02-0.12-0.04-0.16c-0.02-0.04-0.04-0.07-0.07-0.09c-0.03-0.02-0.06-0.03-0.1-0.03c-0.07,0-0.16,0.03-0.29,0.09
	c-0.13,0.06-0.29,0.12-0.49,0.19s-0.44,0.13-0.71,0.19c-0.27,0.06-0.58,0.09-0.93,0.09c-0.44,0-0.82-0.06-1.12-0.19
	c-0.31-0.13-0.56-0.3-0.75-0.54c-0.19-0.23-0.33-0.51-0.41-0.84c-0.08-0.33-0.12-0.69-0.12-1.1h4.84c0.14,0,0.26-0.04,0.36-0.13
	c0.11-0.09,0.16-0.24,0.16-0.45V87.18z M145.69,83.95c-0.02-0.03-0.05-0.06-0.1-0.08c-0.04-0.02-0.11-0.04-0.19-0.04
	c-0.08,0-0.19-0.01-0.31-0.01c-0.15,0-0.27,0-0.36,0.01c-0.09,0.01-0.16,0.02-0.21,0.04c-0.05,0.02-0.09,0.05-0.12,0.08
	c-0.03,0.03-0.05,0.07-0.06,0.12l-2.05,6.06l-0.02,0.1l-0.03-0.1l-2.07-6.06c-0.02-0.05-0.05-0.09-0.07-0.12
	c-0.02-0.03-0.06-0.06-0.11-0.08c-0.05-0.02-0.13-0.04-0.22-0.04c-0.1-0.01-0.22-0.01-0.38-0.01c-0.13,0-0.23,0-0.31,0.01
	c-0.08,0.01-0.15,0.02-0.2,0.04c-0.05,0.02-0.09,0.04-0.11,0.08c-0.02,0.03-0.03,0.07-0.03,0.11c0,0.01,0,0.04,0,0.06
	c0,0.02,0.01,0.06,0.02,0.11c0.01,0.05,0.03,0.1,0.05,0.17l2.5,6.98c0.02,0.05,0.05,0.1,0.09,0.14c0.04,0.04,0.09,0.07,0.16,0.09
	c0.07,0.02,0.16,0.04,0.27,0.05c0.11,0.01,0.24,0.02,0.41,0.02c0.16,0,0.3,0,0.41-0.01c0.11-0.01,0.2-0.02,0.27-0.04
	c0.07-0.02,0.13-0.05,0.16-0.09c0.04-0.04,0.06-0.09,0.09-0.15l2.51-6.98c0.01-0.04,0.02-0.07,0.03-0.1
	c0.01-0.03,0.01-0.06,0.02-0.09c0.01-0.03,0.01-0.05,0.01-0.08c0-0.02,0-0.05,0-0.07C145.72,84.01,145.71,83.98,145.69,83.95
	 M136.8,81.09c-0.1-0.11-0.3-0.16-0.6-0.16c-0.3,0-0.5,0.05-0.6,0.16c-0.11,0.11-0.16,0.32-0.16,0.62c0,0.29,0.05,0.49,0.16,0.59
	c0.1,0.11,0.3,0.16,0.6,0.16c0.3,0,0.5-0.05,0.61-0.16c0.11-0.11,0.16-0.31,0.16-0.61C136.95,81.4,136.9,81.2,136.8,81.09
	 M133.91,81.09c-0.1-0.11-0.3-0.16-0.6-0.16c-0.3,0-0.5,0.05-0.6,0.16c-0.11,0.11-0.16,0.32-0.16,0.62c0,0.29,0.05,0.49,0.16,0.59
	c0.1,0.11,0.3,0.16,0.6,0.16c0.3,0,0.5-0.05,0.61-0.16c0.11-0.11,0.16-0.31,0.16-0.61C134.06,81.4,134.01,81.2,133.91,81.09
	 M136.15,89.63c-0.33,0.37-0.65,0.65-0.95,0.83c-0.3,0.18-0.63,0.27-0.98,0.27c-0.44,0-0.77-0.11-1.02-0.34
	c-0.24-0.23-0.36-0.53-0.36-0.91c0-0.22,0.04-0.42,0.13-0.59c0.09-0.17,0.22-0.32,0.4-0.44c0.18-0.12,0.41-0.21,0.68-0.28
	c0.27-0.06,0.59-0.09,0.96-0.09h1.15V89.63z M137.49,86.47c0-0.46-0.05-0.86-0.16-1.2c-0.1-0.34-0.27-0.63-0.5-0.86
	c-0.23-0.23-0.53-0.41-0.9-0.53s-0.82-0.18-1.35-0.18c-0.28,0-0.56,0.03-0.84,0.08c-0.28,0.05-0.53,0.12-0.77,0.2
	c-0.23,0.08-0.44,0.17-0.62,0.26c-0.18,0.1-0.31,0.18-0.38,0.25c-0.07,0.07-0.12,0.15-0.14,0.23c-0.02,0.08-0.03,0.19-0.03,0.32
	c0,0.08,0.01,0.16,0.02,0.22c0.01,0.07,0.03,0.13,0.05,0.17c0.02,0.04,0.05,0.08,0.08,0.1c0.03,0.02,0.07,0.03,0.12,0.03
	c0.07,0,0.16-0.04,0.3-0.12c0.13-0.08,0.3-0.16,0.5-0.26c0.2-0.1,0.43-0.18,0.69-0.26c0.26-0.08,0.56-0.12,0.9-0.12
	c0.31,0,0.57,0.04,0.78,0.11c0.21,0.07,0.38,0.18,0.52,0.33c0.13,0.14,0.23,0.33,0.29,0.54c0.06,0.22,0.09,0.47,0.09,0.75v0.57
	h-1.01c-0.57,0-1.09,0.05-1.54,0.15c-0.46,0.1-0.84,0.25-1.16,0.45c-0.32,0.2-0.56,0.45-0.73,0.76c-0.17,0.3-0.25,0.66-0.25,1.08
	c0,0.36,0.06,0.67,0.19,0.95c0.12,0.28,0.29,0.51,0.51,0.7c0.22,0.19,0.49,0.34,0.8,0.44c0.31,0.1,0.66,0.15,1.05,0.15
	c0.44,0,0.86-0.1,1.25-0.29c0.4-0.19,0.75-0.46,1.07-0.8v0.73c0,0.07,0.02,0.11,0.06,0.15c0.04,0.03,0.1,0.06,0.18,0.07
	c0.08,0.02,0.2,0.02,0.34,0.02c0.15,0,0.26-0.01,0.33-0.02c0.08-0.02,0.14-0.04,0.18-0.07c0.04-0.03,0.07-0.08,0.07-0.15V86.47z
	 M130.76,84.26c0-0.07-0.01-0.13-0.02-0.17c-0.01-0.04-0.02-0.07-0.03-0.09c-0.01-0.02-0.03-0.05-0.07-0.08
	c-0.03-0.03-0.09-0.05-0.17-0.08c-0.08-0.03-0.17-0.05-0.27-0.07c-0.1-0.02-0.19-0.04-0.28-0.04c-0.09-0.01-0.17-0.01-0.24-0.01
	c-0.16,0-0.31,0.02-0.47,0.06c-0.16,0.04-0.31,0.11-0.47,0.22c-0.16,0.1-0.33,0.25-0.5,0.44c-0.18,0.19-0.37,0.43-0.57,0.72v-1.07
	c0-0.04-0.01-0.08-0.03-0.11c-0.02-0.03-0.05-0.06-0.09-0.08c-0.04-0.02-0.1-0.04-0.19-0.05c-0.08-0.01-0.18-0.01-0.3-0.01
	c-0.13,0-0.23,0-0.3,0.01c-0.08,0.01-0.14,0.02-0.19,0.05c-0.05,0.02-0.08,0.05-0.1,0.08c-0.01,0.03-0.02,0.07-0.02,0.11v7.35
	c0,0.04,0.01,0.08,0.03,0.11c0.02,0.03,0.06,0.06,0.11,0.08c0.05,0.02,0.12,0.04,0.21,0.05c0.09,0.01,0.2,0.02,0.33,0.02
	c0.14,0,0.25-0.01,0.34-0.02c0.09-0.01,0.16-0.03,0.2-0.05c0.05-0.02,0.08-0.05,0.11-0.08c0.02-0.03,0.03-0.07,0.03-0.11v-4.83
	c0.19-0.3,0.36-0.55,0.52-0.76c0.16-0.21,0.31-0.37,0.45-0.5c0.15-0.12,0.28-0.21,0.41-0.27c0.13-0.05,0.26-0.08,0.4-0.08
	c0.11,0,0.22,0.01,0.32,0.03c0.1,0.02,0.19,0.04,0.27,0.07c0.08,0.02,0.15,0.05,0.21,0.07c0.06,0.02,0.12,0.04,0.16,0.04
	c0.04,0,0.08-0.01,0.1-0.04c0.02-0.03,0.04-0.06,0.06-0.11c0.02-0.05,0.03-0.11,0.03-0.19c0.01-0.08,0.01-0.18,0.01-0.3
	C130.76,84.43,130.76,84.33,130.76,84.26 M122.94,88.81c-0.07,0.34-0.18,0.64-0.33,0.92c-0.15,0.27-0.35,0.49-0.59,0.65
	c-0.24,0.16-0.53,0.24-0.87,0.24c-0.37,0-0.72-0.12-1.05-0.36c-0.33-0.24-0.69-0.59-1.06-1.04V86.3c0.21-0.27,0.42-0.49,0.61-0.67
	c0.19-0.18,0.38-0.33,0.55-0.44c0.18-0.11,0.35-0.19,0.52-0.24c0.17-0.05,0.34-0.08,0.52-0.08c0.35,0,0.64,0.08,0.88,0.24
	c0.24,0.16,0.42,0.38,0.56,0.65c0.14,0.27,0.24,0.58,0.3,0.93c0.06,0.35,0.09,0.72,0.09,1.09
	C123.05,88.13,123.01,88.47,122.94,88.81 M124.28,86.12c-0.11-0.48-0.28-0.89-0.52-1.25c-0.24-0.36-0.54-0.64-0.92-0.85
	c-0.38-0.21-0.83-0.31-1.36-0.31c-0.24,0-0.48,0.03-0.7,0.09c-0.22,0.06-0.44,0.14-0.64,0.25c-0.21,0.11-0.42,0.25-0.62,0.42
	c-0.21,0.17-0.42,0.37-0.64,0.6v-0.99c0-0.05-0.01-0.09-0.03-0.12c-0.02-0.03-0.05-0.06-0.1-0.08c-0.05-0.02-0.11-0.04-0.18-0.04
	c-0.07-0.01-0.17-0.01-0.28-0.01c-0.11,0-0.2,0-0.28,0.01c-0.08,0.01-0.14,0.02-0.19,0.04c-0.05,0.02-0.08,0.05-0.1,0.08
	c-0.02,0.03-0.02,0.07-0.02,0.12v10.27c0,0.04,0.01,0.08,0.03,0.11c0.02,0.03,0.05,0.06,0.11,0.08c0.05,0.02,0.12,0.04,0.21,0.05
	c0.09,0.01,0.2,0.01,0.33,0.01c0.14,0,0.25-0.01,0.34-0.01c0.09-0.01,0.16-0.03,0.2-0.05c0.05-0.02,0.08-0.05,0.11-0.08
	c0.02-0.03,0.03-0.07,0.03-0.11v-3.68c0.2,0.19,0.38,0.36,0.56,0.5c0.17,0.14,0.35,0.26,0.53,0.35c0.18,0.09,0.36,0.16,0.54,0.2
	c0.19,0.04,0.39,0.07,0.6,0.07c0.51,0,0.97-0.1,1.36-0.29c0.4-0.19,0.73-0.47,1-0.83c0.27-0.36,0.47-0.79,0.61-1.3
	c0.14-0.51,0.21-1.09,0.21-1.73C124.44,87.1,124.39,86.6,124.28,86.12 M115.88,90.64c-0.01-0.07-0.02-0.12-0.04-0.16
	c-0.01-0.04-0.03-0.06-0.06-0.08c-0.02-0.01-0.05-0.02-0.08-0.02c-0.04,0-0.09,0.01-0.15,0.04c-0.05,0.02-0.12,0.05-0.2,0.08
	c-0.07,0.03-0.16,0.05-0.26,0.08c-0.1,0.02-0.21,0.04-0.34,0.04c-0.38,0-0.65-0.13-0.8-0.39c-0.15-0.26-0.22-0.64-0.22-1.15v-4.1
	h1.89c0.08,0,0.15-0.04,0.2-0.13c0.05-0.09,0.07-0.23,0.07-0.43c0-0.1,0-0.19-0.01-0.26c-0.01-0.07-0.03-0.13-0.05-0.18
	c-0.02-0.05-0.05-0.08-0.09-0.1c-0.03-0.02-0.07-0.03-0.11-0.03h-1.89v-1.75c0-0.04-0.01-0.07-0.03-0.11
	c-0.02-0.03-0.06-0.06-0.1-0.09c-0.05-0.02-0.12-0.04-0.21-0.05c-0.09-0.01-0.2-0.02-0.33-0.02c-0.13,0-0.24,0.01-0.33,0.02
	c-0.09,0.01-0.16,0.03-0.21,0.05c-0.05,0.02-0.09,0.05-0.11,0.09c-0.02,0.03-0.03,0.07-0.03,0.11v1.75h-1.02
	c-0.04,0-0.08,0.01-0.12,0.03c-0.04,0.02-0.06,0.05-0.09,0.1c-0.02,0.04-0.04,0.1-0.05,0.18c-0.01,0.07-0.02,0.16-0.02,0.26
	c0,0.2,0.02,0.34,0.07,0.43c0.05,0.09,0.11,0.13,0.2,0.13h1.03v4.29c0,0.42,0.04,0.79,0.12,1.11c0.08,0.31,0.21,0.57,0.38,0.78
	c0.18,0.21,0.4,0.36,0.67,0.46c0.27,0.1,0.6,0.15,0.98,0.15c0.13,0,0.25-0.01,0.38-0.02c0.13-0.02,0.24-0.04,0.36-0.06
	c0.11-0.02,0.21-0.06,0.3-0.09c0.09-0.04,0.15-0.08,0.2-0.12c0.04-0.04,0.07-0.11,0.1-0.2c0.02-0.09,0.03-0.22,0.03-0.38
	C115.9,90.79,115.9,90.7,115.88,90.64 M109.59,80.51c0-0.04-0.01-0.08-0.03-0.11c-0.02-0.03-0.06-0.06-0.11-0.08
	c-0.05-0.02-0.12-0.04-0.2-0.05c-0.09-0.01-0.2-0.02-0.33-0.02c-0.13,0-0.24,0.01-0.33,0.02c-0.09,0.01-0.16,0.03-0.21,0.05
	c-0.05,0.02-0.09,0.05-0.11,0.08c-0.02,0.03-0.03,0.07-0.03,0.11v10.91c0,0.04,0.01,0.08,0.03,0.11c0.02,0.03,0.05,0.06,0.11,0.08
	c0.05,0.02,0.12,0.04,0.21,0.05c0.09,0.01,0.2,0.02,0.33,0.02c0.14,0,0.25-0.01,0.33-0.02c0.09-0.01,0.16-0.03,0.2-0.05
	c0.05-0.02,0.08-0.05,0.11-0.08c0.02-0.03,0.03-0.07,0.03-0.11V80.51z M104.43,89.63c-0.33,0.37-0.65,0.65-0.95,0.83
	c-0.3,0.18-0.63,0.27-0.98,0.27c-0.44,0-0.77-0.11-1.02-0.34c-0.24-0.23-0.36-0.53-0.36-0.91c0-0.22,0.04-0.42,0.13-0.59
	c0.08-0.17,0.22-0.32,0.4-0.44c0.18-0.12,0.41-0.21,0.68-0.28c0.27-0.06,0.59-0.09,0.96-0.09h1.15V89.63z M105.76,86.47
	c0-0.46-0.05-0.86-0.16-1.2c-0.1-0.34-0.27-0.63-0.5-0.86c-0.23-0.23-0.53-0.41-0.9-0.53s-0.82-0.18-1.35-0.18
	c-0.28,0-0.56,0.03-0.84,0.08c-0.28,0.05-0.53,0.12-0.77,0.2c-0.23,0.08-0.44,0.17-0.62,0.26c-0.18,0.1-0.31,0.18-0.38,0.25
	c-0.07,0.07-0.12,0.15-0.14,0.23c-0.02,0.08-0.03,0.19-0.03,0.32c0,0.08,0.01,0.16,0.02,0.22c0.01,0.07,0.03,0.13,0.05,0.17
	c0.03,0.04,0.05,0.08,0.09,0.1c0.03,0.02,0.07,0.03,0.11,0.03c0.07,0,0.17-0.04,0.3-0.12c0.13-0.08,0.3-0.16,0.5-0.26
	c0.2-0.1,0.43-0.18,0.69-0.26c0.26-0.08,0.56-0.12,0.89-0.12c0.31,0,0.57,0.04,0.78,0.11c0.21,0.07,0.38,0.18,0.52,0.33
	c0.13,0.14,0.23,0.33,0.29,0.54c0.06,0.22,0.09,0.47,0.09,0.75v0.57h-1.01c-0.57,0-1.09,0.05-1.54,0.15
	c-0.46,0.1-0.84,0.25-1.16,0.45c-0.32,0.2-0.56,0.45-0.73,0.76c-0.17,0.3-0.25,0.66-0.25,1.08c0,0.36,0.06,0.67,0.18,0.95
	c0.12,0.28,0.3,0.51,0.52,0.7c0.22,0.19,0.49,0.34,0.8,0.44c0.31,0.1,0.66,0.15,1.05,0.15c0.44,0,0.86-0.1,1.25-0.29
	c0.39-0.19,0.75-0.46,1.07-0.8v0.73c0,0.07,0.02,0.11,0.06,0.15c0.04,0.03,0.1,0.06,0.19,0.07c0.08,0.02,0.2,0.02,0.34,0.02
	c0.15,0,0.26-0.01,0.33-0.02c0.08-0.02,0.14-0.04,0.18-0.07c0.04-0.03,0.07-0.08,0.07-0.15V86.47z M98.71,83.94
	c-0.02-0.03-0.05-0.05-0.1-0.07c-0.04-0.02-0.11-0.04-0.19-0.04c-0.08,0-0.18-0.01-0.31-0.01c-0.14,0-0.26,0-0.35,0.01
	c-0.09,0.01-0.16,0.02-0.21,0.04c-0.05,0.02-0.09,0.05-0.11,0.08c-0.02,0.04-0.04,0.08-0.05,0.13l-1.75,6.06l-0.01,0.07l-0.01-0.07
	l-1.76-6.08c-0.01-0.04-0.03-0.08-0.05-0.11c-0.02-0.03-0.06-0.06-0.11-0.08c-0.05-0.02-0.12-0.03-0.2-0.04
	c-0.08-0.01-0.19-0.01-0.32-0.01c-0.14,0-0.25,0-0.33,0.01c-0.08,0.01-0.15,0.02-0.2,0.04c-0.05,0.02-0.09,0.05-0.11,0.08
	c-0.02,0.04-0.04,0.08-0.05,0.13l-1.63,6.06l-0.02,0.07l-0.01-0.07l-1.77-6.06c-0.01-0.05-0.04-0.09-0.06-0.13
	c-0.02-0.04-0.06-0.06-0.11-0.08c-0.05-0.02-0.12-0.03-0.21-0.04c-0.09-0.01-0.21-0.01-0.37-0.01c-0.13,0-0.23,0-0.32,0.01
	c-0.09,0.01-0.16,0.02-0.21,0.04c-0.05,0.02-0.09,0.04-0.11,0.07c-0.02,0.03-0.03,0.07-0.03,0.12c0,0.04,0.01,0.08,0.02,0.14
	c0.01,0.05,0.03,0.12,0.06,0.2l2.15,6.98c0.02,0.05,0.04,0.1,0.07,0.14c0.03,0.04,0.08,0.07,0.15,0.09
	c0.07,0.02,0.16,0.04,0.26,0.05c0.11,0.01,0.24,0.02,0.41,0.02c0.16,0,0.3,0,0.41-0.01c0.11-0.01,0.2-0.02,0.27-0.04
	c0.07-0.02,0.12-0.05,0.16-0.09c0.04-0.04,0.06-0.09,0.08-0.15l1.43-5.33l0.02-0.07l0.02,0.07l1.54,5.33
	c0.01,0.05,0.04,0.1,0.07,0.14c0.03,0.04,0.08,0.07,0.15,0.09c0.07,0.02,0.16,0.04,0.27,0.05c0.11,0.01,0.26,0.02,0.43,0.02
	c0.16,0,0.3,0,0.41-0.01c0.11-0.01,0.19-0.02,0.26-0.04c0.06-0.02,0.11-0.05,0.15-0.09c0.04-0.04,0.06-0.09,0.08-0.15l2.16-6.98
	c0.03-0.08,0.05-0.15,0.06-0.2c0.01-0.05,0.02-0.1,0.02-0.14C98.74,84.01,98.73,83.97,98.71,83.94 M81.13,87.03
	c0.01-0.3,0.06-0.58,0.16-0.86c0.09-0.27,0.22-0.52,0.39-0.72c0.17-0.21,0.38-0.37,0.63-0.5c0.25-0.13,0.55-0.19,0.88-0.19
	c0.65,0,1.14,0.2,1.47,0.6s0.49,0.96,0.47,1.67H81.13z M86.49,87.18c0-0.48-0.06-0.93-0.18-1.35c-0.12-0.42-0.31-0.79-0.58-1.1
	c-0.26-0.31-0.59-0.56-1-0.75c-0.41-0.19-0.9-0.28-1.47-0.28c-0.54,0-1.03,0.09-1.46,0.28c-0.44,0.19-0.81,0.46-1.12,0.81
	s-0.54,0.78-0.71,1.28c-0.16,0.5-0.24,1.07-0.24,1.7c0,0.66,0.08,1.25,0.24,1.75c0.16,0.5,0.39,0.92,0.7,1.25
	c0.31,0.33,0.69,0.58,1.15,0.75c0.45,0.17,0.98,0.25,1.59,0.25c0.35,0,0.68-0.03,0.98-0.08c0.31-0.05,0.58-0.11,0.81-0.18
	c0.23-0.07,0.42-0.13,0.57-0.2c0.15-0.07,0.24-0.12,0.27-0.15c0.03-0.03,0.05-0.06,0.07-0.1c0.02-0.03,0.03-0.07,0.04-0.11
	c0.01-0.04,0.01-0.09,0.02-0.14c0.01-0.05,0.01-0.11,0.01-0.18c0-0.1,0-0.18-0.01-0.25c-0.01-0.07-0.02-0.12-0.04-0.16
	c-0.02-0.04-0.04-0.07-0.07-0.09c-0.03-0.02-0.07-0.03-0.1-0.03c-0.07,0-0.16,0.03-0.29,0.09c-0.13,0.06-0.29,0.12-0.49,0.19
	s-0.44,0.13-0.71,0.19c-0.27,0.06-0.58,0.09-0.93,0.09c-0.44,0-0.82-0.06-1.12-0.19c-0.31-0.13-0.56-0.3-0.75-0.54
	c-0.19-0.23-0.33-0.51-0.41-0.84c-0.08-0.33-0.12-0.69-0.12-1.1h4.84c0.14,0,0.26-0.04,0.37-0.13c0.11-0.09,0.16-0.24,0.16-0.45
	V87.18z M77.72,82.1c-0.03-0.09-0.08-0.17-0.15-0.24c-0.07-0.07-0.2-0.16-0.39-0.27c-0.19-0.11-0.42-0.22-0.7-0.31
	c-0.27-0.1-0.59-0.18-0.94-0.25c-0.36-0.07-0.73-0.11-1.14-0.11c-0.78,0-1.5,0.13-2.14,0.4c-0.64,0.27-1.2,0.64-1.66,1.12
	c-0.46,0.48-0.82,1.06-1.07,1.74c-0.25,0.68-0.38,1.44-0.38,2.28c0,0.81,0.12,1.53,0.35,2.19c0.23,0.65,0.57,1.21,1.02,1.68
	c0.44,0.47,0.99,0.83,1.63,1.08c0.64,0.25,1.37,0.38,2.19,0.38c0.27,0,0.54-0.01,0.81-0.05c0.27-0.03,0.54-0.08,0.81-0.15
	c0.27-0.06,0.53-0.14,0.78-0.24c0.25-0.09,0.45-0.18,0.61-0.26c0.16-0.08,0.26-0.17,0.31-0.27c0.05-0.1,0.07-0.23,0.07-0.37v-4.03
	c0-0.1-0.01-0.19-0.04-0.26c-0.03-0.08-0.07-0.14-0.11-0.18c-0.05-0.04-0.1-0.08-0.16-0.1c-0.06-0.02-0.12-0.03-0.18-0.03h-3.36
	c-0.05,0-0.09,0.01-0.12,0.03c-0.03,0.02-0.06,0.06-0.09,0.1c-0.02,0.05-0.04,0.11-0.05,0.18c-0.01,0.07-0.01,0.16-0.01,0.27
	c0,0.2,0.02,0.34,0.07,0.43c0.04,0.09,0.12,0.14,0.21,0.14h2.45v3.08c-0.29,0.16-0.6,0.28-0.93,0.36c-0.33,0.08-0.67,0.12-0.99,0.12
	c-0.55,0-1.06-0.09-1.52-0.28c-0.46-0.19-0.86-0.46-1.19-0.82c-0.33-0.36-0.59-0.8-0.78-1.32c-0.19-0.52-0.28-1.12-0.28-1.8
	c0-0.6,0.09-1.16,0.26-1.68c0.17-0.52,0.42-0.96,0.74-1.34c0.32-0.38,0.71-0.67,1.18-0.88c0.46-0.21,0.98-0.32,1.57-0.32
	c0.49,0,0.91,0.05,1.27,0.16c0.36,0.1,0.66,0.22,0.92,0.34c0.26,0.13,0.46,0.24,0.61,0.34c0.15,0.1,0.26,0.16,0.33,0.16
	c0.04,0,0.07-0.01,0.11-0.03c0.03-0.02,0.06-0.06,0.08-0.11c0.02-0.05,0.04-0.12,0.05-0.19c0.01-0.08,0.02-0.17,0.02-0.27
	C77.76,82.32,77.75,82.19,77.72,82.1"/>
<path class="st0" d="M186.54,71.46c-0.21,0.27-0.41,0.49-0.61,0.67c-0.19,0.18-0.37,0.33-0.55,0.44c-0.18,0.12-0.35,0.2-0.51,0.24
	c-0.17,0.05-0.34,0.07-0.52,0.07c-0.35,0-0.65-0.08-0.88-0.25c-0.23-0.17-0.42-0.39-0.56-0.66c-0.14-0.27-0.24-0.59-0.3-0.94
	c-0.06-0.35-0.09-0.72-0.09-1.09c0-0.35,0.03-0.69,0.1-1.03c0.07-0.34,0.18-0.64,0.33-0.91c0.15-0.27,0.34-0.48,0.58-0.64
	c0.24-0.16,0.53-0.24,0.87-0.24c0.37,0,0.73,0.12,1.07,0.36c0.34,0.24,0.69,0.58,1.06,1.03V71.46z M187.89,62.81
	c0-0.04-0.01-0.07-0.04-0.11s-0.06-0.06-0.11-0.08c-0.05-0.02-0.12-0.04-0.21-0.05c-0.09-0.01-0.2-0.02-0.33-0.02
	c-0.13,0-0.24,0.01-0.32,0.02c-0.09,0.01-0.16,0.03-0.21,0.05c-0.05,0.02-0.09,0.05-0.11,0.08s-0.03,0.07-0.03,0.11v4.27
	c-0.35-0.36-0.7-0.64-1.06-0.83c-0.36-0.19-0.75-0.28-1.18-0.28c-0.52,0-0.97,0.1-1.37,0.29c-0.4,0.19-0.73,0.47-0.99,0.83
	c-0.27,0.36-0.47,0.79-0.61,1.3c-0.14,0.51-0.2,1.08-0.2,1.71c0,0.53,0.05,1.04,0.16,1.52c0.11,0.48,0.28,0.9,0.52,1.26
	c0.24,0.36,0.55,0.64,0.93,0.85c0.38,0.21,0.84,0.31,1.38,0.31c0.5,0,0.95-0.12,1.37-0.35c0.42-0.23,0.82-0.56,1.21-0.98v0.97
	c0,0.04,0.01,0.08,0.03,0.11c0.02,0.03,0.06,0.06,0.11,0.08c0.05,0.02,0.11,0.04,0.19,0.04c0.07,0.01,0.17,0.02,0.29,0.02
	c0.11,0,0.2-0.01,0.28-0.02c0.08-0.01,0.14-0.02,0.19-0.04c0.04-0.02,0.08-0.04,0.1-0.08c0.02-0.03,0.03-0.07,0.03-0.11V62.81z
	 M178.5,69.2c0-0.52-0.04-0.97-0.13-1.34c-0.09-0.37-0.24-0.7-0.45-0.98c-0.21-0.28-0.48-0.5-0.81-0.67
	c-0.34-0.16-0.75-0.25-1.24-0.25c-0.42,0-0.83,0.11-1.24,0.32c-0.41,0.22-0.82,0.55-1.24,1.02v-0.97c0-0.04-0.01-0.08-0.03-0.11
	c-0.02-0.03-0.05-0.06-0.1-0.08c-0.04-0.02-0.1-0.04-0.18-0.05c-0.08-0.01-0.18-0.01-0.3-0.01c-0.13,0-0.23,0-0.3,0.01
	c-0.08,0.01-0.14,0.02-0.19,0.05c-0.05,0.02-0.08,0.05-0.1,0.08c-0.02,0.03-0.02,0.07-0.02,0.11v7.35c0,0.04,0.01,0.08,0.03,0.11
	c0.02,0.03,0.05,0.06,0.11,0.08c0.05,0.02,0.12,0.04,0.21,0.05c0.09,0.01,0.2,0.02,0.33,0.02c0.14,0,0.25-0.01,0.33-0.02
	c0.09-0.01,0.16-0.03,0.21-0.05c0.05-0.02,0.08-0.05,0.1-0.08c0.02-0.03,0.03-0.07,0.03-0.11v-5.14c0.37-0.46,0.72-0.81,1.06-1.05
	c0.34-0.24,0.67-0.36,1.01-0.36c0.26,0,0.49,0.05,0.69,0.15c0.2,0.1,0.36,0.24,0.49,0.42c0.13,0.19,0.22,0.41,0.29,0.66
	c0.07,0.26,0.1,0.59,0.1,1.01v4.3c0,0.04,0.01,0.08,0.03,0.11c0.02,0.03,0.06,0.06,0.11,0.08c0.05,0.02,0.12,0.04,0.2,0.05
	c0.09,0.01,0.2,0.02,0.33,0.02c0.13,0,0.24-0.01,0.33-0.02c0.09-0.01,0.16-0.03,0.2-0.05c0.05-0.02,0.08-0.05,0.11-0.08
	c0.02-0.03,0.03-0.07,0.03-0.11V69.2z M169.05,66.34c0-0.04-0.01-0.08-0.04-0.11s-0.06-0.06-0.11-0.08
	c-0.05-0.02-0.12-0.04-0.2-0.05c-0.09-0.01-0.2-0.01-0.33-0.01c-0.14,0-0.25,0-0.33,0.01c-0.08,0.01-0.15,0.02-0.21,0.05
	c-0.05,0.02-0.09,0.05-0.11,0.08c-0.02,0.03-0.03,0.07-0.03,0.11v5.14c-0.38,0.46-0.73,0.81-1.07,1.05
	c-0.33,0.24-0.67,0.36-1.01,0.36c-0.26,0-0.49-0.05-0.69-0.15c-0.2-0.1-0.36-0.24-0.49-0.43c-0.13-0.18-0.22-0.4-0.29-0.66
	c-0.06-0.26-0.1-0.6-0.1-1.03v-4.28c0-0.04-0.01-0.08-0.03-0.11c-0.02-0.03-0.06-0.06-0.11-0.08c-0.05-0.02-0.12-0.04-0.21-0.05
	c-0.09-0.01-0.19-0.01-0.33-0.01s-0.24,0-0.33,0.01c-0.09,0.01-0.16,0.02-0.21,0.05c-0.05,0.02-0.09,0.05-0.11,0.08
	s-0.03,0.07-0.03,0.11v4.46c0,0.53,0.04,0.99,0.13,1.36c0.09,0.37,0.24,0.7,0.44,0.98c0.21,0.28,0.48,0.5,0.81,0.67
	c0.33,0.16,0.75,0.24,1.24,0.24c0.42,0,0.83-0.11,1.24-0.32c0.41-0.21,0.82-0.55,1.24-1.01v0.97c0,0.04,0.01,0.08,0.02,0.11
	c0.01,0.03,0.05,0.06,0.09,0.08c0.05,0.02,0.11,0.04,0.19,0.05c0.08,0.01,0.18,0.02,0.31,0.02c0.11,0,0.21-0.01,0.29-0.02
	c0.08-0.01,0.14-0.03,0.19-0.05c0.05-0.02,0.08-0.05,0.1-0.08c0.02-0.03,0.03-0.07,0.03-0.11V66.34z M155.75,73.05
	c-0.01-0.07-0.04-0.13-0.06-0.18c-0.02-0.04-0.05-0.07-0.09-0.09c-0.04-0.02-0.07-0.03-0.12-0.03h-3.45l3.23-5.05
	c0.05-0.09,0.1-0.17,0.14-0.24c0.04-0.07,0.07-0.14,0.09-0.2c0.02-0.06,0.04-0.13,0.05-0.19c0.01-0.07,0.01-0.13,0.01-0.21V66.6
	c0-0.09-0.01-0.17-0.03-0.23c-0.02-0.06-0.04-0.11-0.08-0.15c-0.03-0.04-0.07-0.07-0.12-0.08c-0.05-0.02-0.1-0.02-0.16-0.02h-4.21
	c-0.05,0-0.09,0.01-0.13,0.03c-0.04,0.02-0.07,0.05-0.09,0.1c-0.02,0.05-0.04,0.11-0.05,0.18c-0.01,0.07-0.02,0.16-0.02,0.26
	c0,0.2,0.03,0.35,0.08,0.44c0.05,0.09,0.12,0.14,0.21,0.14h3.15l-3.24,5.05c-0.05,0.09-0.1,0.16-0.14,0.23
	c-0.04,0.07-0.07,0.13-0.09,0.19c-0.02,0.06-0.04,0.12-0.05,0.18c-0.01,0.06-0.02,0.13-0.02,0.2v0.28c0,0.18,0.04,0.31,0.11,0.38
	c0.07,0.08,0.17,0.11,0.28,0.11h4.52c0.04,0,0.08-0.01,0.12-0.03c0.04-0.02,0.07-0.05,0.09-0.1c0.02-0.05,0.04-0.11,0.06-0.18
	c0.02-0.07,0.02-0.16,0.02-0.27S155.77,73.12,155.75,73.05 M148.66,72.9c-0.01-0.07-0.02-0.12-0.04-0.16
	c-0.01-0.04-0.03-0.06-0.06-0.08c-0.02-0.01-0.05-0.02-0.08-0.02c-0.04,0-0.09,0.01-0.15,0.04c-0.05,0.02-0.12,0.05-0.2,0.08
	c-0.08,0.03-0.16,0.05-0.26,0.08c-0.1,0.03-0.21,0.04-0.33,0.04c-0.39,0-0.65-0.13-0.8-0.39c-0.15-0.26-0.22-0.64-0.22-1.15v-4.1
	h1.89c0.08,0,0.15-0.04,0.2-0.13c0.05-0.09,0.07-0.23,0.07-0.42c0-0.1-0.01-0.19-0.01-0.26c-0.01-0.07-0.03-0.13-0.05-0.18
	c-0.02-0.05-0.05-0.08-0.09-0.1c-0.03-0.02-0.07-0.03-0.11-0.03h-1.89v-1.75c0-0.04-0.01-0.07-0.03-0.11
	c-0.02-0.03-0.06-0.06-0.11-0.09c-0.05-0.02-0.12-0.04-0.2-0.05c-0.09-0.01-0.2-0.02-0.33-0.02c-0.13,0-0.24,0.01-0.33,0.02
	c-0.09,0.01-0.16,0.03-0.21,0.05c-0.05,0.02-0.09,0.05-0.11,0.09c-0.02,0.03-0.03,0.07-0.03,0.11v1.75h-1.02
	c-0.04,0-0.08,0.01-0.12,0.03c-0.04,0.02-0.06,0.05-0.09,0.1c-0.02,0.05-0.04,0.1-0.05,0.18c-0.01,0.07-0.02,0.16-0.02,0.26
	c0,0.2,0.02,0.34,0.07,0.42c0.05,0.09,0.11,0.13,0.2,0.13h1.03v4.29c0,0.43,0.04,0.79,0.12,1.11c0.08,0.31,0.21,0.57,0.38,0.78
	c0.17,0.2,0.4,0.36,0.67,0.46c0.27,0.1,0.6,0.15,0.98,0.15c0.13,0,0.25-0.01,0.38-0.02c0.13-0.02,0.24-0.04,0.36-0.06
	c0.11-0.02,0.21-0.05,0.3-0.09c0.09-0.04,0.15-0.08,0.2-0.12c0.04-0.04,0.08-0.11,0.1-0.21c0.02-0.09,0.03-0.22,0.03-0.38
	C148.68,73.05,148.67,72.97,148.66,72.9 M141.73,66.34c0-0.04-0.01-0.08-0.04-0.11c-0.03-0.03-0.06-0.06-0.11-0.08
	c-0.05-0.02-0.12-0.04-0.21-0.05c-0.09-0.01-0.2-0.01-0.33-0.01c-0.14,0-0.25,0-0.33,0.01c-0.09,0.01-0.16,0.02-0.21,0.05
	c-0.05,0.02-0.09,0.05-0.11,0.08s-0.03,0.07-0.03,0.11v5.14c-0.38,0.46-0.73,0.81-1.07,1.05c-0.34,0.24-0.67,0.36-1.01,0.36
	c-0.26,0-0.49-0.05-0.69-0.15c-0.2-0.1-0.36-0.24-0.49-0.43c-0.13-0.18-0.22-0.4-0.29-0.66c-0.06-0.26-0.09-0.6-0.09-1.03v-4.28
	c0-0.04-0.01-0.08-0.03-0.11s-0.06-0.06-0.11-0.08c-0.05-0.02-0.12-0.04-0.21-0.05c-0.09-0.01-0.2-0.01-0.33-0.01s-0.24,0-0.33,0.01
	c-0.09,0.01-0.16,0.02-0.21,0.05c-0.05,0.02-0.09,0.05-0.11,0.08c-0.02,0.03-0.03,0.07-0.03,0.11v4.46c0,0.53,0.04,0.99,0.13,1.36
	c0.09,0.37,0.24,0.7,0.44,0.98c0.21,0.28,0.48,0.5,0.81,0.67c0.33,0.16,0.75,0.24,1.24,0.24c0.42,0,0.83-0.11,1.24-0.32
	c0.41-0.21,0.82-0.55,1.24-1.01v0.97c0,0.04,0.01,0.08,0.02,0.11c0.02,0.03,0.05,0.06,0.09,0.08c0.05,0.02,0.11,0.04,0.19,0.05
	c0.08,0.01,0.18,0.02,0.3,0.02c0.12,0,0.21-0.01,0.29-0.02c0.08-0.01,0.14-0.03,0.19-0.05c0.05-0.02,0.08-0.05,0.1-0.08
	c0.02-0.03,0.03-0.07,0.03-0.11V66.34z M132.34,69.21c0-0.53-0.04-0.98-0.14-1.35c-0.09-0.37-0.24-0.7-0.44-0.98
	c-0.21-0.28-0.48-0.5-0.81-0.67c-0.34-0.16-0.75-0.25-1.24-0.25c-0.4,0-0.79,0.1-1.18,0.3c-0.39,0.2-0.78,0.5-1.17,0.91v-4.4
	c0-0.04-0.01-0.08-0.03-0.11c-0.02-0.03-0.06-0.06-0.1-0.08c-0.05-0.02-0.12-0.04-0.21-0.05c-0.09-0.01-0.2-0.01-0.33-0.01
	c-0.13,0-0.24,0.01-0.33,0.01c-0.09,0.01-0.16,0.03-0.21,0.05c-0.05,0.02-0.09,0.05-0.11,0.08c-0.02,0.03-0.03,0.07-0.03,0.11v10.91
	c0,0.04,0.01,0.08,0.03,0.11c0.02,0.03,0.05,0.06,0.11,0.08c0.05,0.02,0.12,0.04,0.21,0.05c0.09,0.01,0.2,0.02,0.33,0.02
	c0.14,0,0.25-0.01,0.33-0.02c0.09-0.01,0.16-0.03,0.21-0.05c0.05-0.02,0.08-0.05,0.1-0.08c0.02-0.03,0.03-0.07,0.03-0.11v-5.14
	c0.37-0.46,0.72-0.81,1.06-1.05c0.34-0.24,0.67-0.36,1.01-0.36c0.26,0,0.49,0.05,0.69,0.15c0.2,0.1,0.36,0.24,0.49,0.42
	c0.13,0.19,0.22,0.41,0.29,0.66c0.07,0.26,0.1,0.59,0.1,1.01v4.3c0,0.04,0.01,0.08,0.03,0.11c0.02,0.03,0.06,0.06,0.11,0.08
	c0.05,0.02,0.12,0.04,0.2,0.05c0.09,0.01,0.2,0.02,0.33,0.02c0.13,0,0.24-0.01,0.33-0.02c0.09-0.01,0.16-0.03,0.2-0.05
	c0.05-0.02,0.08-0.05,0.11-0.08c0.02-0.03,0.03-0.07,0.03-0.11V69.21z M123.57,72.28c-0.01-0.08-0.02-0.14-0.04-0.2
	c-0.02-0.05-0.04-0.09-0.07-0.11c-0.03-0.02-0.06-0.03-0.1-0.03c-0.07,0-0.16,0.05-0.27,0.14c-0.12,0.1-0.26,0.2-0.43,0.32
	c-0.17,0.12-0.38,0.22-0.61,0.32c-0.23,0.1-0.51,0.15-0.82,0.15c-0.33,0-0.62-0.06-0.87-0.18c-0.25-0.12-0.47-0.3-0.64-0.53
	c-0.17-0.24-0.31-0.54-0.4-0.9c-0.09-0.36-0.13-0.77-0.13-1.24c0-0.95,0.17-1.67,0.52-2.17c0.35-0.5,0.84-0.75,1.49-0.75
	c0.32,0,0.59,0.04,0.82,0.13c0.23,0.09,0.43,0.19,0.59,0.3c0.16,0.11,0.3,0.21,0.4,0.3c0.11,0.09,0.2,0.13,0.28,0.13
	c0.07,0,0.13-0.04,0.18-0.13c0.05-0.08,0.07-0.23,0.07-0.44c0-0.1,0-0.18-0.01-0.24c-0.01-0.07-0.02-0.12-0.03-0.18
	c-0.01-0.05-0.04-0.1-0.06-0.13c-0.02-0.04-0.07-0.09-0.13-0.16c-0.07-0.07-0.17-0.14-0.32-0.24c-0.14-0.09-0.31-0.17-0.49-0.24
	c-0.19-0.07-0.39-0.13-0.61-0.17c-0.22-0.04-0.45-0.07-0.68-0.07c-0.49,0-0.94,0.08-1.35,0.24c-0.42,0.16-0.78,0.41-1.09,0.74
	c-0.31,0.33-0.55,0.76-0.73,1.28c-0.18,0.52-0.27,1.14-0.27,1.87c0,0.64,0.07,1.2,0.22,1.69c0.14,0.49,0.35,0.9,0.63,1.23
	c0.27,0.33,0.62,0.59,1.03,0.76c0.41,0.17,0.88,0.26,1.4,0.26c0.26,0,0.5-0.02,0.74-0.07c0.24-0.05,0.46-0.11,0.67-0.19
	c0.21-0.08,0.39-0.17,0.55-0.27c0.16-0.1,0.28-0.19,0.35-0.25c0.07-0.07,0.11-0.12,0.13-0.16c0.02-0.04,0.04-0.08,0.05-0.12
	c0.01-0.05,0.02-0.1,0.03-0.17c0.01-0.07,0.01-0.15,0.01-0.24C123.58,72.46,123.58,72.36,123.57,72.28 M115.58,70.87
	c-0.11-0.23-0.25-0.42-0.42-0.59c-0.17-0.16-0.38-0.3-0.6-0.41c-0.23-0.12-0.46-0.22-0.69-0.31c-0.23-0.09-0.46-0.18-0.68-0.27
	c-0.22-0.09-0.42-0.19-0.6-0.29c-0.18-0.11-0.32-0.24-0.43-0.38c-0.11-0.14-0.16-0.32-0.16-0.53c0-0.15,0.03-0.3,0.09-0.43
	c0.06-0.13,0.14-0.24,0.25-0.34c0.11-0.1,0.25-0.17,0.43-0.22c0.17-0.05,0.38-0.08,0.6-0.08c0.26,0,0.48,0.03,0.68,0.09
	c0.2,0.06,0.37,0.12,0.52,0.19c0.15,0.07,0.27,0.13,0.36,0.19c0.09,0.06,0.16,0.09,0.21,0.09c0.03,0,0.06-0.01,0.09-0.03
	c0.03-0.02,0.05-0.05,0.07-0.1c0.02-0.04,0.03-0.1,0.04-0.17c0.01-0.07,0.01-0.15,0.01-0.24c0-0.09,0-0.16-0.01-0.22
	c-0.01-0.06-0.01-0.11-0.02-0.15c-0.01-0.04-0.02-0.08-0.04-0.11c-0.02-0.03-0.06-0.07-0.12-0.11c-0.06-0.04-0.14-0.09-0.25-0.15
	c-0.11-0.06-0.25-0.11-0.4-0.16c-0.16-0.05-0.34-0.09-0.53-0.12c-0.2-0.03-0.39-0.05-0.59-0.05c-0.45,0-0.84,0.06-1.17,0.18
	c-0.33,0.12-0.61,0.28-0.84,0.48c-0.22,0.2-0.39,0.43-0.5,0.69c-0.11,0.27-0.17,0.54-0.17,0.83c0,0.33,0.05,0.61,0.16,0.84
	c0.11,0.23,0.25,0.44,0.42,0.6c0.17,0.17,0.37,0.31,0.59,0.43c0.22,0.12,0.44,0.22,0.68,0.31c0.23,0.09,0.46,0.18,0.67,0.27
	c0.22,0.08,0.41,0.18,0.59,0.29c0.18,0.11,0.32,0.23,0.42,0.38c0.1,0.14,0.16,0.32,0.16,0.52c0,0.2-0.04,0.38-0.11,0.52
	c-0.07,0.15-0.18,0.27-0.31,0.36c-0.14,0.1-0.3,0.17-0.48,0.22s-0.39,0.07-0.62,0.07c-0.31,0-0.58-0.04-0.81-0.11
	c-0.23-0.07-0.44-0.15-0.61-0.24c-0.17-0.09-0.32-0.17-0.43-0.24c-0.12-0.07-0.21-0.11-0.27-0.11c-0.04,0-0.07,0.01-0.1,0.03
	c-0.03,0.02-0.05,0.05-0.07,0.09c-0.02,0.04-0.03,0.1-0.04,0.17c-0.01,0.07-0.02,0.16-0.02,0.26c0,0.17,0.01,0.3,0.04,0.4
	c0.03,0.1,0.07,0.17,0.13,0.23c0.06,0.05,0.16,0.12,0.29,0.18c0.13,0.07,0.29,0.13,0.48,0.2c0.19,0.06,0.4,0.11,0.64,0.16
	c0.24,0.04,0.49,0.06,0.75,0.06c0.43,0,0.81-0.05,1.17-0.16c0.36-0.1,0.66-0.26,0.92-0.46c0.26-0.2,0.45-0.45,0.59-0.74
	c0.14-0.3,0.21-0.63,0.21-1.01C115.74,71.37,115.69,71.1,115.58,70.87 M109.23,66.52c0-0.07-0.01-0.13-0.02-0.17
	c-0.01-0.04-0.02-0.07-0.03-0.09c-0.01-0.02-0.03-0.05-0.07-0.08c-0.03-0.03-0.09-0.05-0.17-0.08c-0.08-0.03-0.17-0.05-0.27-0.07
	c-0.1-0.02-0.19-0.04-0.28-0.04c-0.09-0.01-0.17-0.01-0.24-0.01c-0.16,0-0.31,0.02-0.47,0.06c-0.16,0.04-0.31,0.11-0.47,0.22
	c-0.16,0.11-0.33,0.25-0.5,0.44c-0.18,0.19-0.37,0.42-0.57,0.72v-1.07c0-0.04-0.01-0.08-0.03-0.11c-0.02-0.03-0.05-0.06-0.1-0.08
	c-0.04-0.02-0.1-0.04-0.18-0.05c-0.08-0.01-0.18-0.01-0.3-0.01c-0.13,0-0.23,0-0.3,0.01c-0.08,0.01-0.14,0.02-0.19,0.05
	c-0.05,0.02-0.08,0.05-0.1,0.08c-0.02,0.03-0.02,0.07-0.02,0.11v7.35c0,0.04,0.01,0.08,0.03,0.11c0.02,0.03,0.05,0.06,0.11,0.08
	c0.05,0.02,0.12,0.04,0.21,0.05c0.09,0.01,0.2,0.02,0.33,0.02c0.14,0,0.25-0.01,0.33-0.02c0.09-0.01,0.16-0.03,0.21-0.05
	c0.05-0.02,0.08-0.05,0.1-0.08c0.02-0.03,0.03-0.07,0.03-0.11v-4.83c0.19-0.3,0.36-0.55,0.52-0.76c0.16-0.21,0.31-0.37,0.45-0.5
	s0.28-0.21,0.41-0.27c0.13-0.05,0.26-0.08,0.4-0.08c0.11,0,0.22,0.01,0.32,0.03c0.1,0.02,0.19,0.04,0.27,0.07
	c0.08,0.03,0.15,0.05,0.21,0.07c0.06,0.02,0.12,0.04,0.16,0.04c0.04,0,0.08-0.01,0.1-0.04c0.02-0.02,0.04-0.06,0.06-0.11
	c0.01-0.05,0.03-0.11,0.03-0.19c0.01-0.08,0.01-0.18,0.01-0.3C109.24,66.69,109.24,66.59,109.23,66.52 M96.89,69.29
	c0.01-0.3,0.06-0.59,0.16-0.86c0.09-0.27,0.22-0.52,0.39-0.72c0.17-0.21,0.38-0.37,0.63-0.5c0.25-0.13,0.55-0.19,0.88-0.19
	c0.65,0,1.14,0.2,1.48,0.6c0.33,0.4,0.49,0.96,0.47,1.67H96.89z M102.26,69.45c0-0.48-0.06-0.93-0.18-1.35
	c-0.12-0.42-0.32-0.79-0.58-1.1c-0.26-0.31-0.59-0.56-1-0.75c-0.41-0.19-0.9-0.28-1.47-0.28c-0.54,0-1.03,0.09-1.46,0.28
	c-0.44,0.19-0.81,0.46-1.11,0.81c-0.31,0.35-0.54,0.78-0.71,1.28c-0.16,0.5-0.24,1.07-0.24,1.7c0,0.66,0.08,1.25,0.24,1.75
	c0.16,0.5,0.39,0.92,0.7,1.25c0.31,0.33,0.69,0.58,1.15,0.75c0.45,0.17,0.98,0.25,1.59,0.25c0.35,0,0.68-0.03,0.98-0.08
	c0.31-0.05,0.58-0.11,0.81-0.18c0.24-0.06,0.43-0.13,0.57-0.2c0.15-0.07,0.24-0.12,0.27-0.15c0.03-0.03,0.05-0.06,0.07-0.09
	c0.02-0.03,0.03-0.07,0.04-0.11c0.01-0.04,0.01-0.09,0.02-0.14c0.01-0.05,0.01-0.11,0.01-0.18c0-0.1,0-0.18-0.01-0.25
	c-0.01-0.07-0.02-0.12-0.04-0.16c-0.01-0.04-0.04-0.07-0.07-0.08c-0.03-0.02-0.06-0.03-0.1-0.03c-0.07,0-0.16,0.03-0.29,0.09
	c-0.13,0.06-0.29,0.12-0.49,0.19c-0.2,0.07-0.44,0.13-0.71,0.19c-0.27,0.06-0.58,0.08-0.94,0.08c-0.44,0-0.82-0.06-1.12-0.19
	c-0.31-0.13-0.56-0.3-0.75-0.54c-0.19-0.23-0.33-0.51-0.41-0.84c-0.08-0.33-0.12-0.69-0.12-1.1h4.84c0.14,0,0.26-0.04,0.36-0.13
	c0.11-0.09,0.16-0.24,0.16-0.45V69.45z M94.68,63.05c-0.01-0.07-0.02-0.14-0.04-0.19c-0.02-0.05-0.05-0.09-0.08-0.13
	c-0.03-0.03-0.1-0.07-0.2-0.11c-0.1-0.04-0.24-0.08-0.41-0.12c-0.18-0.03-0.37-0.05-0.56-0.05c-0.4,0-0.75,0.06-1.05,0.17
	c-0.3,0.11-0.54,0.28-0.74,0.52c-0.19,0.23-0.34,0.53-0.44,0.9c-0.1,0.37-0.14,0.81-0.14,1.32v0.76h-1.04
	c-0.04,0-0.08,0.01-0.11,0.03c-0.03,0.02-0.06,0.05-0.08,0.1c-0.02,0.05-0.04,0.1-0.05,0.18c-0.01,0.07-0.02,0.16-0.02,0.26
	c0,0.2,0.02,0.34,0.07,0.42c0.04,0.09,0.11,0.13,0.2,0.13h1.04v6.44c0,0.04,0.01,0.08,0.03,0.11c0.02,0.03,0.06,0.06,0.11,0.08
	c0.05,0.02,0.12,0.04,0.21,0.05c0.09,0.01,0.2,0.02,0.33,0.02s0.24-0.01,0.33-0.02c0.09-0.01,0.16-0.03,0.21-0.05
	c0.05-0.02,0.09-0.05,0.11-0.08c0.02-0.03,0.03-0.07,0.03-0.11v-6.44h1.64c0.08,0,0.15-0.04,0.2-0.13s0.07-0.23,0.07-0.42
	c0-0.1-0.01-0.19-0.02-0.26s-0.03-0.13-0.06-0.18c-0.02-0.05-0.05-0.08-0.08-0.1c-0.03-0.02-0.07-0.03-0.11-0.03h-1.64v-0.8
	c0-0.32,0.02-0.58,0.06-0.81c0.04-0.22,0.1-0.4,0.19-0.54c0.09-0.14,0.2-0.24,0.34-0.31c0.14-0.07,0.31-0.1,0.52-0.1
	c0.15,0,0.27,0.01,0.39,0.04s0.21,0.05,0.29,0.08c0.08,0.03,0.15,0.06,0.21,0.08c0.06,0.02,0.1,0.04,0.14,0.04
	c0.03,0,0.06-0.01,0.08-0.02c0.02-0.01,0.04-0.04,0.05-0.08c0.01-0.04,0.03-0.09,0.04-0.15c0.01-0.06,0.02-0.15,0.02-0.25
	C94.69,63.21,94.68,63.12,94.68,63.05 M86.64,71.07c-0.07,0.34-0.18,0.64-0.33,0.92c-0.15,0.27-0.35,0.49-0.59,0.65
	c-0.24,0.16-0.54,0.24-0.88,0.24c-0.37,0-0.72-0.12-1.05-0.36c-0.33-0.24-0.69-0.58-1.06-1.04v-2.92c0.21-0.27,0.42-0.49,0.61-0.67
	c0.19-0.18,0.38-0.33,0.55-0.44c0.18-0.11,0.35-0.19,0.52-0.24c0.17-0.05,0.34-0.08,0.52-0.08c0.35,0,0.64,0.08,0.88,0.24
	c0.24,0.16,0.42,0.38,0.56,0.65c0.14,0.27,0.24,0.58,0.3,0.94c0.06,0.35,0.09,0.71,0.09,1.09C86.74,70.39,86.71,70.73,86.64,71.07
	 M87.98,68.38c-0.11-0.47-0.28-0.89-0.52-1.25c-0.24-0.36-0.54-0.64-0.92-0.85c-0.38-0.21-0.83-0.31-1.36-0.31
	c-0.24,0-0.48,0.03-0.7,0.09c-0.22,0.06-0.44,0.14-0.64,0.25c-0.21,0.11-0.42,0.25-0.63,0.42c-0.21,0.17-0.42,0.37-0.64,0.6v-0.99
	c0-0.05-0.01-0.09-0.03-0.12c-0.02-0.03-0.05-0.05-0.1-0.08c-0.05-0.02-0.11-0.04-0.18-0.04c-0.07-0.01-0.17-0.01-0.28-0.01
	c-0.11,0-0.2,0-0.28,0.01c-0.07,0.01-0.14,0.02-0.19,0.04c-0.05,0.02-0.08,0.05-0.1,0.08c-0.02,0.03-0.03,0.07-0.03,0.12V76.6
	c0,0.04,0.01,0.08,0.03,0.11c0.02,0.03,0.05,0.06,0.11,0.08c0.05,0.02,0.12,0.04,0.21,0.05c0.09,0.01,0.2,0.02,0.33,0.02
	c0.14,0,0.25-0.01,0.33-0.02c0.09-0.01,0.16-0.03,0.2-0.05c0.05-0.02,0.08-0.05,0.11-0.08c0.02-0.03,0.03-0.07,0.03-0.11v-3.68
	c0.2,0.19,0.38,0.36,0.56,0.5c0.17,0.14,0.35,0.26,0.53,0.35c0.18,0.09,0.36,0.16,0.54,0.2c0.19,0.04,0.39,0.07,0.6,0.07
	c0.51,0,0.97-0.1,1.36-0.29c0.4-0.19,0.73-0.47,1-0.83c0.27-0.36,0.47-0.79,0.61-1.3c0.14-0.51,0.21-1.09,0.21-1.73
	C88.14,69.36,88.09,68.86,87.98,68.38 M77.03,70.21c-0.11,0.51-0.29,0.96-0.55,1.35c-0.26,0.39-0.59,0.7-1.01,0.93
	c-0.42,0.23-0.94,0.34-1.55,0.34c-0.62,0-1.13-0.1-1.55-0.31c-0.41-0.21-0.74-0.5-0.98-0.88c-0.24-0.38-0.42-0.83-0.52-1.35
	c-0.1-0.52-0.16-1.09-0.16-1.71c0-0.56,0.06-1.1,0.17-1.61c0.11-0.51,0.3-0.95,0.55-1.33c0.26-0.38,0.59-0.69,1.01-0.92
	c0.41-0.23,0.93-0.34,1.53-0.34c0.61,0,1.12,0.1,1.53,0.32c0.41,0.21,0.74,0.51,0.99,0.89c0.25,0.38,0.42,0.83,0.53,1.34
	c0.11,0.51,0.16,1.07,0.16,1.67C77.19,69.15,77.14,69.69,77.03,70.21 M78.4,66.21c-0.19-0.66-0.47-1.22-0.86-1.67
	c-0.38-0.45-0.86-0.79-1.44-1.03c-0.58-0.23-1.26-0.35-2.03-0.35c-0.81,0-1.51,0.13-2.12,0.39c-0.6,0.26-1.11,0.63-1.51,1.1
	c-0.4,0.48-0.7,1.05-0.91,1.73c-0.2,0.68-0.3,1.44-0.3,2.27c0,0.87,0.09,1.64,0.28,2.31c0.19,0.67,0.47,1.23,0.85,1.68
	c0.38,0.45,0.86,0.8,1.44,1.03c0.58,0.24,1.27,0.36,2.06,0.36c0.81,0,1.51-0.13,2.12-0.39c0.6-0.26,1.11-0.63,1.51-1.11
	s0.7-1.07,0.9-1.75c0.2-0.69,0.3-1.46,0.3-2.31C78.68,67.63,78.58,66.87,78.4,66.21"/>
</svg>
